<svg xmlns="http://www.w3.org/2000/svg" viewBox="0 0 240 140" fill="none" role="img" aria-label="Bill-Book">
  <path d="M12 70C12 14 78 14 120 70C162 126 228 126 228 70C228 14 162 14 120 70C78 126 12 126 12 70Z" stroke="#f06311" stroke-width="13" stroke-linejoin="round"></path>
  <g fill="#f06311">
    <rect x="34" y="54" width="26" height="6" rx="3"></rect>
    <rect x="30" y="67" width="30" height="6" rx="3"></rect>
    <rect x="38" y="80" width="22" height="6" rx="3"></rect>
    <rect x="156" y="74" width="10" height="18" rx="2.5"></rect>
    <rect x="171" y="62" width="10" height="30" rx="2.5"></rect>
    <rect x="186" y="50" width="10" height="42" rx="2.5"></rect>
  </g>
  <g stroke="#f06311" stroke-width="5" fill="none">
    <circle cx="68" cy="57" r="6.5"></circle>
    <circle cx="68" cy="70" r="6.5"></circle>
    <circle cx="68" cy="83" r="6.5"></circle>
  </g>
</svg>